<svg xmlns="http://www.w3.org/2000/svg" width="960" height="470" viewBox="0 0 960 470">
<rect width="100%" height="100%" fill="#ffffff"/>
<text x="78" y="36" font-family="Arial, Helvetica, sans-serif" font-size="24" font-weight="700" fill="#1f2933">Activation Diagnosis: Layer Cosine Similarity</text>
<text x="78" y="62" font-family="Arial, Helvetica, sans-serif" font-size="14" fill="#52606d">vLLM INT8 stays near BF16; ModelOpt INT8 shows large layer-wise drift</text>
<rect x="560" y="76" width="18" height="5" fill="#197278"/>
<text x="588" y="82" font-family="Arial, Helvetica, sans-serif" font-size="13" fill="#1f2933">vLLM INT8 W8A8</text>
<rect x="560" y="100" width="18" height="5" fill="#c44536"/>
<text x="588" y="106" font-family="Arial, Helvetica, sans-serif" font-size="13" fill="#1f2933">ModelOpt INT8 SQ</text>
<line x1="78" y1="398.00" x2="924" y2="398.00" stroke="#edf2f7" stroke-width="1"/>
<text x="68" y="403.00" text-anchor="end" font-family="Arial, Helvetica, sans-serif" font-size="12" fill="#52606d">0.700</text>
<line x1="78" y1="330.50" x2="924" y2="330.50" stroke="#edf2f7" stroke-width="1"/>
<text x="68" y="335.50" text-anchor="end" font-family="Arial, Helvetica, sans-serif" font-size="12" fill="#52606d">0.776</text>
<line x1="78" y1="263.00" x2="924" y2="263.00" stroke="#edf2f7" stroke-width="1"/>
<text x="68" y="268.00" text-anchor="end" font-family="Arial, Helvetica, sans-serif" font-size="12" fill="#52606d">0.852</text>
<line x1="78" y1="195.50" x2="924" y2="195.50" stroke="#edf2f7" stroke-width="1"/>
<text x="68" y="200.50" text-anchor="end" font-family="Arial, Helvetica, sans-serif" font-size="12" fill="#52606d">0.929</text>
<line x1="78" y1="128.00" x2="924" y2="128.00" stroke="#edf2f7" stroke-width="1"/>
<text x="68" y="133.00" text-anchor="end" font-family="Arial, Helvetica, sans-serif" font-size="12" fill="#52606d">1.005</text>
<line x1="78.00" y1="128" x2="78.00" y2="398" stroke="#f5f7fa" stroke-width="1"/>
<text x="78.00" y="426" text-anchor="middle" font-family="Arial, Helvetica, sans-serif" font-size="12" fill="#52606d">0</text>
<line x1="198.86" y1="128" x2="198.86" y2="398" stroke="#f5f7fa" stroke-width="1"/>
<text x="198.86" y="426" text-anchor="middle" font-family="Arial, Helvetica, sans-serif" font-size="12" fill="#52606d">5</text>
<line x1="319.71" y1="128" x2="319.71" y2="398" stroke="#f5f7fa" stroke-width="1"/>
<text x="319.71" y="426" text-anchor="middle" font-family="Arial, Helvetica, sans-serif" font-size="12" fill="#52606d">10</text>
<line x1="440.57" y1="128" x2="440.57" y2="398" stroke="#f5f7fa" stroke-width="1"/>
<text x="440.57" y="426" text-anchor="middle" font-family="Arial, Helvetica, sans-serif" font-size="12" fill="#52606d">15</text>
<line x1="561.43" y1="128" x2="561.43" y2="398" stroke="#f5f7fa" stroke-width="1"/>
<text x="561.43" y="426" text-anchor="middle" font-family="Arial, Helvetica, sans-serif" font-size="12" fill="#52606d">20</text>
<line x1="682.29" y1="128" x2="682.29" y2="398" stroke="#f5f7fa" stroke-width="1"/>
<text x="682.29" y="426" text-anchor="middle" font-family="Arial, Helvetica, sans-serif" font-size="12" fill="#52606d">25</text>
<line x1="803.14" y1="128" x2="803.14" y2="398" stroke="#f5f7fa" stroke-width="1"/>
<text x="803.14" y="426" text-anchor="middle" font-family="Arial, Helvetica, sans-serif" font-size="12" fill="#52606d">30</text>
<line x1="924.00" y1="128" x2="924.00" y2="398" stroke="#f5f7fa" stroke-width="1"/>
<text x="924.00" y="426" text-anchor="middle" font-family="Arial, Helvetica, sans-serif" font-size="12" fill="#52606d">35</text>
<line x1="78" y1="398" x2="924" y2="398" stroke="#9aa5b1" stroke-width="1"/>
<line x1="78" y1="128" x2="78" y2="398" stroke="#9aa5b1" stroke-width="1"/>
<polyline points="78.00,132.48 102.17,132.48 126.34,132.49 150.51,132.50 174.69,132.52 198.86,132.54 223.03,132.47 247.20,132.47 271.37,132.47 295.54,132.47 319.71,132.47 343.89,132.47 368.06,132.47 392.23,132.47 416.40,132.47 440.57,132.47 464.74,132.47 488.91,132.47 513.09,132.47 537.26,132.47 561.43,132.47 585.60,132.47 609.77,132.47 633.94,132.47 658.11,132.47 682.29,132.47 706.46,132.48 730.63,132.48 754.80,132.49 778.97,132.49 803.14,132.51 827.31,132.52 851.49,132.54 875.66,132.56 899.83,132.64 924.00,133.86" fill="none" stroke="#197278" stroke-width="3" stroke-linejoin="round" stroke-linecap="round"/>
<circle cx="78.00" cy="132.48" r="3.5" fill="#197278"/>
<circle cx="464.74" cy="132.47" r="3.5" fill="#197278"/>
<circle cx="585.60" cy="132.47" r="3.5" fill="#197278"/>
<circle cx="924.00" cy="133.86" r="3.5" fill="#197278"/>
<polyline points="78.00,148.25 102.17,152.09 126.34,159.13 150.51,159.82 174.69,156.63 198.86,153.46 223.03,133.96 247.20,134.28 271.37,134.77 295.54,134.91 319.71,134.97 343.89,135.29 368.06,135.86 392.23,136.19 416.40,136.80 440.57,137.28 464.74,370.74 488.91,370.56 513.09,369.61 537.26,367.59 561.43,366.30 585.60,364.42 609.77,360.36 633.94,353.22 658.11,343.21 682.29,335.46 706.46,325.68 730.63,316.48 754.80,305.95 778.97,292.38 803.14,278.90 827.31,265.95 851.49,255.97 875.66,239.96 899.83,178.69 924.00,232.59" fill="none" stroke="#c44536" stroke-width="3" stroke-linejoin="round" stroke-linecap="round"/>
<circle cx="78.00" cy="148.25" r="3.5" fill="#c44536"/>
<circle cx="464.74" cy="370.74" r="3.5" fill="#c44536"/>
<circle cx="585.60" cy="364.42" r="3.5" fill="#c44536"/>
<circle cx="924.00" cy="232.59" r="3.5" fill="#c44536"/>
<text x="501.00" y="452" text-anchor="middle" font-family="Arial, Helvetica, sans-serif" font-size="13" fill="#52606d">Decoder layer</text>
<text transform="translate(22 263.00) rotate(-90)" text-anchor="middle" font-family="Arial, Helvetica, sans-serif" font-size="13" fill="#52606d">Cosine similarity</text>
</svg>