<svg xmlns="http://www.w3.org/2000/svg" width="1120" height="680" viewBox="0 0 1120 680">
  <rect width="100%" height="100%" fill="white"/>
  <text x="560.0" y="34" text-anchor="middle" font-family="Arial, Helvetica, sans-serif" font-size="24" font-weight="700" fill="#111827">C-Eval: Cumulative BF16 mlp.down_proj</text>
  <g font-family="Arial, Helvetica, sans-serif">
    <line x1="102" y1="54" x2="136" y2="54" stroke="#2563eb" stroke-width="3"/><text x="145" y="59" font-size="13" fill="#374151">Cumulative BF16 down_proj</text>
    <circle cx="330" cy="54" r="6" fill="#16a34a" stroke="white" stroke-width="1.4"/><text x="344" y="59" font-size="13" fill="#374151">Best point</text>
    <line x1="450" y1="54" x2="484" y2="54" stroke="#111827" stroke-width="2" stroke-dasharray="8 7"/><text x="493" y="59" font-size="13" fill="#374151">BF16 baseline</text>
    <line x1="610" y1="54" x2="644" y2="54" stroke="#ef4444" stroke-width="2" stroke-dasharray="8 7"/><text x="653" y="59" font-size="13" fill="#374151">INT8 baseline</text>
  </g>
  <g font-family="Arial, Helvetica, sans-serif">
    <line x1="92" y1="584.0" x2="1058" y2="584.0" stroke="#e7edf3"/><text x="79" y="589.0" text-anchor="end" font-size="14" fill="#475569">0.6800</text><line x1="92" y1="499.7" x2="1058" y2="499.7" stroke="#e7edf3"/><text x="79" y="504.7" text-anchor="end" font-size="14" fill="#475569">0.7000</text><line x1="92" y1="415.3" x2="1058" y2="415.3" stroke="#e7edf3"/><text x="79" y="420.3" text-anchor="end" font-size="14" fill="#475569">0.7200</text><line x1="92" y1="331.0" x2="1058" y2="331.0" stroke="#e7edf3"/><text x="79" y="336.0" text-anchor="end" font-size="14" fill="#475569">0.7400</text><line x1="92" y1="246.7" x2="1058" y2="246.7" stroke="#e7edf3"/><text x="79" y="251.7" text-anchor="end" font-size="14" fill="#475569">0.7600</text><line x1="92" y1="162.3" x2="1058" y2="162.3" stroke="#e7edf3"/><text x="79" y="167.3" text-anchor="end" font-size="14" fill="#475569">0.7800</text><line x1="92" y1="78.0" x2="1058" y2="78.0" stroke="#e7edf3"/><text x="79" y="83.0" text-anchor="end" font-size="14" fill="#475569">0.8000</text><line x1="92.0" y1="78" x2="92.0" y2="584" stroke="#f2f5f8"/><text x="92.0" y="613" text-anchor="middle" font-size="13" fill="#475569">1</text><line x1="119.6" y1="78" x2="119.6" y2="584" stroke="#f2f5f8"/><text x="119.6" y="613" text-anchor="middle" font-size="13" fill="#475569">2</text><line x1="174.8" y1="78" x2="174.8" y2="584" stroke="#f2f5f8"/><text x="174.8" y="613" text-anchor="middle" font-size="13" fill="#475569">4</text><line x1="230.0" y1="78" x2="230.0" y2="584" stroke="#f2f5f8"/><text x="230.0" y="613" text-anchor="middle" font-size="13" fill="#475569">6</text><line x1="285.2" y1="78" x2="285.2" y2="584" stroke="#f2f5f8"/><text x="285.2" y="613" text-anchor="middle" font-size="13" fill="#475569">8</text><line x1="340.4" y1="78" x2="340.4" y2="584" stroke="#f2f5f8"/><text x="340.4" y="613" text-anchor="middle" font-size="13" fill="#475569">10</text><line x1="395.6" y1="78" x2="395.6" y2="584" stroke="#f2f5f8"/><text x="395.6" y="613" text-anchor="middle" font-size="13" fill="#475569">12</text><line x1="450.8" y1="78" x2="450.8" y2="584" stroke="#f2f5f8"/><text x="450.8" y="613" text-anchor="middle" font-size="13" fill="#475569">14</text><line x1="506.0" y1="78" x2="506.0" y2="584" stroke="#f2f5f8"/><text x="506.0" y="613" text-anchor="middle" font-size="13" fill="#475569">16</text><line x1="561.2" y1="78" x2="561.2" y2="584" stroke="#f2f5f8"/><text x="561.2" y="613" text-anchor="middle" font-size="13" fill="#475569">18</text><line x1="616.4" y1="78" x2="616.4" y2="584" stroke="#f2f5f8"/><text x="616.4" y="613" text-anchor="middle" font-size="13" fill="#475569">20</text><line x1="671.6" y1="78" x2="671.6" y2="584" stroke="#f2f5f8"/><text x="671.6" y="613" text-anchor="middle" font-size="13" fill="#475569">22</text><line x1="726.8" y1="78" x2="726.8" y2="584" stroke="#f2f5f8"/><text x="726.8" y="613" text-anchor="middle" font-size="13" fill="#475569">24</text><line x1="782.0" y1="78" x2="782.0" y2="584" stroke="#f2f5f8"/><text x="782.0" y="613" text-anchor="middle" font-size="13" fill="#475569">26</text><line x1="837.2" y1="78" x2="837.2" y2="584" stroke="#f2f5f8"/><text x="837.2" y="613" text-anchor="middle" font-size="13" fill="#475569">28</text><line x1="892.4" y1="78" x2="892.4" y2="584" stroke="#f2f5f8"/><text x="892.4" y="613" text-anchor="middle" font-size="13" fill="#475569">30</text><line x1="947.6" y1="78" x2="947.6" y2="584" stroke="#f2f5f8"/><text x="947.6" y="613" text-anchor="middle" font-size="13" fill="#475569">32</text><line x1="1002.8" y1="78" x2="1002.8" y2="584" stroke="#f2f5f8"/><text x="1002.8" y="613" text-anchor="middle" font-size="13" fill="#475569">34</text><line x1="1058.0" y1="78" x2="1058.0" y2="584" stroke="#f2f5f8"/><text x="1058.0" y="613" text-anchor="middle" font-size="13" fill="#475569">36</text>
    <line x1="92" y1="78" x2="92" y2="584" stroke="#111827" stroke-width="1.4"/>
    <line x1="92" y1="584" x2="1058" y2="584" stroke="#111827" stroke-width="1.4"/>
    <text x="575.0" y="644" text-anchor="middle" font-size="15" fill="#111827">First N layers with BF16 mlp.down_proj</text>
    <text transform="translate(31 331.0) rotate(-90)" text-anchor="middle" font-size="15" fill="#111827">C-Eval accuracy</text>
    <line x1="92" y1="140.0" x2="1058" y2="140.0" stroke="#111827" stroke-width="2" stroke-dasharray="8 7"/>
    <line x1="92" y1="553.5" x2="1058" y2="553.5" stroke="#ef4444" stroke-width="2" stroke-dasharray="8 7"/>
    <polyline points="92.0,494.0 119.6,443.9 147.2,409.4 174.8,378.1 202.4,331.1 230.0,299.8 257.6,265.3 285.2,224.6 312.8,255.9 340.4,237.1 368.0,205.8 395.6,196.4 423.2,190.2 450.8,187.0 478.4,187.0 506.0,187.0 533.6,158.8 561.2,165.1 588.8,183.9 616.4,158.8 644.0,143.2 671.6,149.4 699.2,149.4 726.8,158.8 754.4,155.7 782.0,155.7 809.6,152.6 837.2,146.3 864.8,143.2 892.4,140.0 920.0,143.2 947.6,136.9 975.2,146.3 1002.8,130.6 1030.4,146.3 1058.0,146.3" fill="none" stroke="#2563eb" stroke-width="3" stroke-linejoin="round" stroke-linecap="round"/>
    <circle cx="92.0" cy="494.0" r="3.8" fill="#2563eb" stroke="white" stroke-width="1.4"/><circle cx="119.6" cy="443.9" r="3.8" fill="#2563eb" stroke="white" stroke-width="1.4"/><circle cx="147.2" cy="409.4" r="3.8" fill="#2563eb" stroke="white" stroke-width="1.4"/><circle cx="174.8" cy="378.1" r="3.8" fill="#2563eb" stroke="white" stroke-width="1.4"/><circle cx="202.4" cy="331.1" r="3.8" fill="#2563eb" stroke="white" stroke-width="1.4"/><circle cx="230.0" cy="299.8" r="3.8" fill="#2563eb" stroke="white" stroke-width="1.4"/><circle cx="257.6" cy="265.3" r="3.8" fill="#2563eb" stroke="white" stroke-width="1.4"/><circle cx="285.2" cy="224.6" r="3.8" fill="#2563eb" stroke="white" stroke-width="1.4"/><circle cx="312.8" cy="255.9" r="3.8" fill="#2563eb" stroke="white" stroke-width="1.4"/><circle cx="340.4" cy="237.1" r="3.8" fill="#2563eb" stroke="white" stroke-width="1.4"/><circle cx="368.0" cy="205.8" r="3.8" fill="#2563eb" stroke="white" stroke-width="1.4"/><circle cx="395.6" cy="196.4" r="3.8" fill="#2563eb" stroke="white" stroke-width="1.4"/><circle cx="423.2" cy="190.2" r="3.8" fill="#2563eb" stroke="white" stroke-width="1.4"/><circle cx="450.8" cy="187.0" r="3.8" fill="#2563eb" stroke="white" stroke-width="1.4"/><circle cx="478.4" cy="187.0" r="3.8" fill="#2563eb" stroke="white" stroke-width="1.4"/><circle cx="506.0" cy="187.0" r="3.8" fill="#2563eb" stroke="white" stroke-width="1.4"/><circle cx="533.6" cy="158.8" r="3.8" fill="#2563eb" stroke="white" stroke-width="1.4"/><circle cx="561.2" cy="165.1" r="3.8" fill="#2563eb" stroke="white" stroke-width="1.4"/><circle cx="588.8" cy="183.9" r="3.8" fill="#2563eb" stroke="white" stroke-width="1.4"/><circle cx="616.4" cy="158.8" r="3.8" fill="#2563eb" stroke="white" stroke-width="1.4"/><circle cx="644.0" cy="143.2" r="3.8" fill="#2563eb" stroke="white" stroke-width="1.4"/><circle cx="671.6" cy="149.4" r="3.8" fill="#2563eb" stroke="white" stroke-width="1.4"/><circle cx="699.2" cy="149.4" r="3.8" fill="#2563eb" stroke="white" stroke-width="1.4"/><circle cx="726.8" cy="158.8" r="3.8" fill="#2563eb" stroke="white" stroke-width="1.4"/><circle cx="754.4" cy="155.7" r="3.8" fill="#2563eb" stroke="white" stroke-width="1.4"/><circle cx="782.0" cy="155.7" r="3.8" fill="#2563eb" stroke="white" stroke-width="1.4"/><circle cx="809.6" cy="152.6" r="3.8" fill="#2563eb" stroke="white" stroke-width="1.4"/><circle cx="837.2" cy="146.3" r="3.8" fill="#2563eb" stroke="white" stroke-width="1.4"/><circle cx="864.8" cy="143.2" r="3.8" fill="#2563eb" stroke="white" stroke-width="1.4"/><circle cx="892.4" cy="140.0" r="3.8" fill="#2563eb" stroke="white" stroke-width="1.4"/><circle cx="920.0" cy="143.2" r="3.8" fill="#2563eb" stroke="white" stroke-width="1.4"/><circle cx="947.6" cy="136.9" r="3.8" fill="#2563eb" stroke="white" stroke-width="1.4"/><circle cx="975.2" cy="146.3" r="3.8" fill="#2563eb" stroke="white" stroke-width="1.4"/><circle cx="1002.8" cy="130.6" r="6.2" fill="#16a34a" stroke="white" stroke-width="1.4"/><circle cx="1030.4" cy="146.3" r="3.8" fill="#2563eb" stroke="white" stroke-width="1.4"/><circle cx="1058.0" cy="146.3" r="3.8" fill="#2563eb" stroke="white" stroke-width="1.4"/>
  </g>
</svg>
