<svg xmlns="http://www.w3.org/2000/svg" width="860" height="430" viewBox="0 0 860 430">
<rect width="100%" height="100%" fill="#ffffff"/>
<text x="92" y="36" font-family="Arial, Helvetica, sans-serif" font-size="24" font-weight="700" fill="#1f2933">vLLM Serving Output Throughput</text>
<text x="92" y="62" font-family="Arial, Helvetica, sans-serif" font-size="14" fill="#52606d">vllm bench serve output tokens/s; higher is better</text>
<line x1="92" y1="354" x2="826" y2="354" stroke="#9aa5b1" stroke-width="1"/>
<line x1="92" y1="354.00" x2="826" y2="354.00" stroke="#edf2f7" stroke-width="1"/>
<text x="82" y="359.00" text-anchor="end" font-family="Arial, Helvetica, sans-serif" font-size="12" fill="#52606d">0</text>
<line x1="92" y1="287.50" x2="826" y2="287.50" stroke="#edf2f7" stroke-width="1"/>
<text x="82" y="292.50" text-anchor="end" font-family="Arial, Helvetica, sans-serif" font-size="12" fill="#52606d">271</text>
<line x1="92" y1="221.00" x2="826" y2="221.00" stroke="#edf2f7" stroke-width="1"/>
<text x="82" y="226.00" text-anchor="end" font-family="Arial, Helvetica, sans-serif" font-size="12" fill="#52606d">542</text>
<line x1="92" y1="154.50" x2="826" y2="154.50" stroke="#edf2f7" stroke-width="1"/>
<text x="82" y="159.50" text-anchor="end" font-family="Arial, Helvetica, sans-serif" font-size="12" fill="#52606d">814</text>
<line x1="92" y1="88.00" x2="826" y2="88.00" stroke="#edf2f7" stroke-width="1"/>
<text x="82" y="93.00" text-anchor="end" font-family="Arial, Helvetica, sans-serif" font-size="12" fill="#52606d">1085</text>
<text transform="translate(22 221.00) rotate(-90)" text-anchor="middle" font-family="Arial, Helvetica, sans-serif" font-size="13" fill="#52606d">tokens/s</text>
<rect x="92.00" y="289.91" width="222.00" height="64.09" rx="5" fill="#52606d"/>
<text x="203.00" y="279.91" text-anchor="middle" font-family="Arial, Helvetica, sans-serif" font-size="14" font-weight="700" fill="#1f2933">261</text>
<text x="203.00" y="384" text-anchor="middle" font-family="Arial, Helvetica, sans-serif" font-size="14" fill="#1f2933">BF16</text>
<rect x="348.00" y="88.00" width="222.00" height="266.00" rx="5" fill="#197278"/>
<text x="459.00" y="78.00" text-anchor="middle" font-family="Arial, Helvetica, sans-serif" font-size="14" font-weight="700" fill="#1f2933">1085</text>
<text x="459.00" y="384" text-anchor="middle" font-family="Arial, Helvetica, sans-serif" font-size="14" fill="#1f2933">INT8 W8A8</text>
<rect x="604.00" y="162.84" width="222.00" height="191.16" rx="5" fill="#c44536"/>
<text x="715.00" y="152.84" text-anchor="middle" font-family="Arial, Helvetica, sans-serif" font-size="14" font-weight="700" fill="#1f2933">780</text>
<text x="715.00" y="384" text-anchor="middle" font-family="Arial, Helvetica, sans-serif" font-size="14" fill="#1f2933">MXFP4A16</text>
</svg>